# Low-poly FPS pump shotgun + right arm
# Units: meters. Origin near pistol grip. Barrel along +Z. Up +Y.
mtllib shotgun_fps_arm.mtl
v -0.02200 -0.01200 0.04000
v 0.02200 -0.01200 0.04000
v 0.02200 0.05800 0.04000
v -0.02200 0.05800 0.04000
v -0.02200 -0.01200 0.20000
v 0.02200 -0.01200 0.20000
v 0.02200 0.05800 0.20000
v -0.02200 0.05800 0.20000
v 0.01800 0.01200 0.08000
v 0.02400 0.01200 0.08000
v 0.02400 0.04000 0.08000
v 0.01800 0.04000 0.08000
v 0.01800 0.01200 0.16000
v 0.02400 0.01200 0.16000
v 0.02400 0.04000 0.16000
v 0.01800 0.04000 0.16000
v -0.00800 -0.03800 0.06000
v 0.00800 -0.03800 0.06000
v 0.00800 -0.01000 0.06000
v -0.00800 -0.01000 0.06000
v -0.00800 -0.03800 0.12000
v 0.00800 -0.03800 0.12000
v 0.00800 -0.01000 0.12000
v -0.00800 -0.01000 0.12000
v -0.00600 -0.02800 0.07800
v 0.00600 -0.02800 0.07800
v 0.00600 -0.00600 0.07800
v -0.00600 -0.00600 0.07800
v -0.00600 -0.02800 0.09200
v 0.00600 -0.02800 0.09200
v 0.00600 -0.00600 0.09200
v -0.00600 -0.00600 0.09200
v -0.02800 -0.01800 0.22000
v 0.02800 -0.01800 0.22000
v 0.02800 0.03200 0.22000
v -0.02800 0.03200 0.22000
v -0.02800 -0.01800 0.40000
v 0.02800 -0.01800 0.40000
v 0.02800 0.03200 0.40000
v -0.02800 0.03200 0.40000
v -0.03000 -0.02000 0.22000
v 0.03000 -0.02000 0.22000
v 0.03000 0.03400 0.22000
v -0.03000 0.03400 0.22000
v -0.03000 -0.02000 0.23500
v 0.03000 -0.02000 0.23500
v 0.03000 0.03400 0.23500
v -0.03000 0.03400 0.23500
v -0.03000 -0.02000 0.38500
v 0.03000 -0.02000 0.38500
v 0.03000 0.03400 0.38500
v -0.03000 0.03400 0.38500
v -0.03000 -0.02000 0.40000
v 0.03000 -0.02000 0.40000
v 0.03000 0.03400 0.40000
v -0.03000 0.03400 0.40000
v 0.01016 -0.00179 0.40000
v 0.01016 -0.00179 0.78000
v 0.00421 0.00416 0.40000
v 0.00421 0.00416 0.78000
v -0.00421 0.00416 0.40000
v -0.00421 0.00416 0.78000
v -0.01016 -0.00179 0.40000
v -0.01016 -0.00179 0.78000
v -0.01016 -0.01021 0.40000
v -0.01016 -0.01021 0.78000
v -0.00421 -0.01616 0.40000
v -0.00421 -0.01616 0.78000
v 0.00421 -0.01616 0.40000
v 0.00421 -0.01616 0.78000
v 0.01016 -0.01021 0.40000
v 0.01016 -0.01021 0.78000
v 0.00000 -0.00600 0.40000
v 0.00000 -0.00600 0.78000
v 0.01236 0.02602 0.20000
v 0.01236 0.02602 0.86000
v 0.00764 0.03252 0.20000
v 0.00764 0.03252 0.86000
v 0.00000 0.03500 0.20000
v 0.00000 0.03500 0.86000
v -0.00764 0.03252 0.20000
v -0.00764 0.03252 0.86000
v -0.01236 0.02602 0.20000
v -0.01236 0.02602 0.86000
v -0.01236 0.01798 0.20000
v -0.01236 0.01798 0.86000
v -0.00764 0.01148 0.20000
v -0.00764 0.01148 0.86000
v -0.00000 0.00900 0.20000
v -0.00000 0.00900 0.86000
v 0.00764 0.01148 0.20000
v 0.00764 0.01148 0.86000
v 0.01236 0.01798 0.20000
v 0.01236 0.01798 0.86000
v 0.00000 0.02200 0.20000
v 0.00000 0.02200 0.86000
v 0.01427 0.02664 0.86000
v 0.01213 0.02594 0.89000
v 0.00882 0.03414 0.86000
v 0.00749 0.03231 0.89000
v 0.00000 0.03700 0.86000
v 0.00000 0.03475 0.89000
v -0.00882 0.03414 0.86000
v -0.00749 0.03231 0.89000
v -0.01427 0.02664 0.86000
v -0.01213 0.02594 0.89000
v -0.01427 0.01736 0.86000
v -0.01213 0.01806 0.89000
v -0.00882 0.00986 0.86000
v -0.00749 0.01169 0.89000
v -0.00000 0.00700 0.86000
v -0.00000 0.00925 0.89000
v 0.00882 0.00986 0.86000
v 0.00749 0.01169 0.89000
v 0.01427 0.01736 0.86000
v 0.01213 0.01806 0.89000
v 0.00000 0.02200 0.86000
v 0.00000 0.02200 0.89000
v -0.01600 -0.00400 0.45500
v 0.01600 -0.00400 0.45500
v 0.01600 0.03800 0.45500
v -0.01600 0.03800 0.45500
v -0.01600 -0.00400 0.47500
v 0.01600 -0.00400 0.47500
v 0.01600 0.03800 0.47500
v -0.01600 0.03800 0.47500
v -0.00400 0.03400 0.82000
v 0.00400 0.03400 0.82000
v 0.00400 0.05200 0.82000
v -0.00400 0.05200 0.82000
v -0.00400 0.03400 0.84500
v 0.00400 0.03400 0.84500
v 0.00400 0.05200 0.84500
v -0.00400 0.05200 0.84500
v -0.01000 0.05600 0.17500
v 0.01000 0.05600 0.17500
v 0.01000 0.06800 0.17500
v -0.01000 0.06800 0.17500
v -0.01000 0.05600 0.19500
v 0.01000 0.05600 0.19500
v 0.01000 0.06800 0.19500
v -0.01000 0.06800 0.19500
v -0.01800 0.05500 0.04000
v 0.01800 0.05500 0.04000
v -0.01800 -0.01200 0.04000
v 0.01800 -0.01200 0.04000
v -0.01600 0.06200 -0.10000
v 0.01600 0.06200 -0.10000
v -0.01800 0.07000 -0.30000
v 0.01800 0.07000 -0.30000
v -0.01800 -0.05500 -0.30000
v 0.01800 -0.05500 -0.30000
v -0.02000 -0.01800 -0.04000
v 0.02000 -0.01800 -0.04000
v -0.02200 -0.05000 -0.12000
v 0.02200 -0.05000 -0.12000
v -0.02000 -0.05800 -0.31500
v 0.02000 -0.05800 -0.31500
v 0.02000 0.07400 -0.31500
v -0.02000 0.07400 -0.31500
v -0.02000 -0.05800 -0.29800
v 0.02000 -0.05800 -0.29800
v 0.02000 0.07400 -0.29800
v -0.02000 0.07400 -0.29800
v 0.04000 -0.12000 -0.18000
v 0.11000 -0.12000 -0.18000
v 0.11000 -0.03500 -0.18000
v 0.04000 -0.03500 -0.18000
v 0.04000 -0.12000 0.03000
v 0.11000 -0.12000 0.03000
v 0.11000 -0.03500 0.03000
v 0.04000 -0.03500 0.03000
v 0.03800 -0.12500 -0.22000
v 0.11200 -0.12500 -0.22000
v 0.11200 -0.03200 -0.22000
v 0.03800 -0.03200 -0.22000
v 0.03800 -0.12500 -0.17000
v 0.11200 -0.12500 -0.17000
v 0.11200 -0.03200 -0.17000
v 0.03800 -0.03200 -0.17000
v 0.03000 -0.08500 -0.01000
v 0.09000 -0.08500 -0.01000
v 0.09000 -0.01500 -0.01000
v 0.03000 -0.01500 -0.01000
v 0.03000 -0.08500 0.04500
v 0.09000 -0.08500 0.04500
v 0.09000 -0.01500 0.04500
v 0.03000 -0.01500 0.04500
v 0.02200 -0.05000 0.00000
v 0.07200 -0.05000 0.00000
v 0.07200 0.02200 0.00000
v 0.02200 0.02200 0.00000
v 0.02200 -0.05000 0.08500
v 0.07200 -0.05000 0.08500
v 0.07200 0.02200 0.08500
v 0.02200 0.02200 0.08500
v 0.02023 0.00990 0.05892
v 0.03620 0.00990 0.05792
v 0.03577 0.02210 0.05108
v 0.01980 0.02210 0.05208
v 0.02338 0.03829 0.10940
v 0.03935 0.03829 0.10840
v 0.03893 0.05050 0.10156
v 0.02296 0.05050 0.10256
v 0.00299 -0.03847 0.09449
v 0.01699 -0.03847 0.09421
v 0.01701 -0.02553 0.09551
v 0.00301 -0.02553 0.09579
v 0.00394 -0.04324 0.14225
v 0.01794 -0.04324 0.14197
v 0.01797 -0.03031 0.14326
v 0.00397 -0.03031 0.14354
v 0.02698 -0.04659 0.04220
v 0.02966 -0.04659 0.05696
v 0.02502 -0.03341 0.05780
v 0.02234 -0.03341 0.04304
v -0.01749 -0.06276 0.05028
v -0.01480 -0.06276 0.06504
v -0.01944 -0.04958 0.06589
v -0.02213 -0.04958 0.05113
v 0.02968 -0.04048 0.02318
v 0.02737 -0.04048 0.03699
v 0.02632 -0.02752 0.03682
v 0.02863 -0.02752 0.02301
v -0.01358 -0.04408 0.01597
v -0.01588 -0.04408 0.02978
v -0.01693 -0.03113 0.02961
v -0.01463 -0.03113 0.01580
v 0.02991 -0.02770 0.00801
v 0.02303 -0.02770 0.01784
v 0.02609 -0.01630 0.01999
v 0.03297 -0.01630 0.01016
v 0.00188 -0.01649 -0.01161
v -0.00500 -0.01649 -0.00177
v -0.00194 -0.00509 0.00037
v 0.00495 -0.00509 -0.00946
v 0.06600 -0.01800 0.01800
v 0.07800 -0.01800 0.01800
v 0.07800 0.01200 0.01800
v 0.06600 0.01200 0.01800
v 0.06600 -0.01800 0.05800
v 0.07800 -0.01800 0.05800
v 0.07800 0.01200 0.05800
v 0.06600 0.01200 0.05800
g receiver
usemtl metal_dark
f 1 4 3
f 1 3 2
f 5 6 7
f 5 7 8
f 1 2 6
f 1 6 5
f 4 8 7
f 4 7 3
f 1 5 8
f 1 8 4
f 2 3 7
f 2 7 6
usemtl metal
f 9 12 11
f 9 11 10
f 13 14 15
f 13 15 16
f 9 10 14
f 9 14 13
f 12 16 15
f 12 15 11
f 9 13 16
f 9 16 12
f 10 11 15
f 10 15 14
g trigger
usemtl metal_dark
f 17 20 19
f 17 19 18
f 21 22 23
f 21 23 24
f 17 18 22
f 17 22 21
f 20 24 23
f 20 23 19
f 17 21 24
f 17 24 20
f 18 19 23
f 18 23 22
usemtl metal
f 25 28 27
f 25 27 26
f 29 30 31
f 29 31 32
f 25 26 30
f 25 30 29
f 28 32 31
f 28 31 27
f 25 29 32
f 25 32 28
f 26 27 31
f 26 31 30
g pump
usemtl wood
f 33 36 35
f 33 35 34
f 37 38 39
f 37 39 40
f 33 34 38
f 33 38 37
f 36 40 39
f 36 39 35
f 33 37 40
f 33 40 36
f 34 35 39
f 34 39 38
usemtl metal_dark
f 41 44 43
f 41 43 42
f 45 46 47
f 45 47 48
f 41 42 46
f 41 46 45
f 44 48 47
f 44 47 43
f 41 45 48
f 41 48 44
f 42 43 47
f 42 47 46
f 49 52 51
f 49 51 50
f 53 54 55
f 53 55 56
f 49 50 54
f 49 54 53
f 52 56 55
f 52 55 51
f 49 53 56
f 49 56 52
f 50 51 55
f 50 55 54
g mag_tube
usemtl metal
f 57 59 60
f 57 60 58
f 59 61 62
f 59 62 60
f 61 63 64
f 61 64 62
f 63 65 66
f 63 66 64
f 65 67 68
f 65 68 66
f 67 69 70
f 67 70 68
f 69 71 72
f 69 72 70
f 71 57 58
f 71 58 72
f 73 59 57
f 74 58 60
f 73 61 59
f 74 60 62
f 73 63 61
f 74 62 64
f 73 65 63
f 74 64 66
f 73 67 65
f 74 66 68
f 73 69 67
f 74 68 70
f 73 71 69
f 74 70 72
f 73 57 71
f 74 72 58
g barrel
usemtl metal_blue
f 75 77 78
f 75 78 76
f 77 79 80
f 77 80 78
f 79 81 82
f 79 82 80
f 81 83 84
f 81 84 82
f 83 85 86
f 83 86 84
f 85 87 88
f 85 88 86
f 87 89 90
f 87 90 88
f 89 91 92
f 89 92 90
f 91 93 94
f 91 94 92
f 93 75 76
f 93 76 94
f 95 77 75
f 96 76 78
f 95 79 77
f 96 78 80
f 95 81 79
f 96 80 82
f 95 83 81
f 96 82 84
f 95 85 83
f 96 84 86
f 95 87 85
f 96 86 88
f 95 89 87
f 96 88 90
f 95 91 89
f 96 90 92
f 95 93 91
f 96 92 94
f 95 75 93
f 96 94 76
usemtl metal_dark
f 97 99 100
f 97 100 98
f 99 101 102
f 99 102 100
f 101 103 104
f 101 104 102
f 103 105 106
f 103 106 104
f 105 107 108
f 105 108 106
f 107 109 110
f 107 110 108
f 109 111 112
f 109 112 110
f 111 113 114
f 111 114 112
f 113 115 116
f 113 116 114
f 115 97 98
f 115 98 116
f 117 99 97
f 118 98 100
f 117 101 99
f 118 100 102
f 117 103 101
f 118 102 104
f 117 105 103
f 118 104 106
f 117 107 105
f 118 106 108
f 117 109 107
f 118 108 110
f 117 111 109
f 118 110 112
f 117 113 111
f 118 112 114
f 117 115 113
f 118 114 116
f 117 97 115
f 118 116 98
f 119 122 121
f 119 121 120
f 123 124 125
f 123 125 126
f 119 120 124
f 119 124 123
f 122 126 125
f 122 125 121
f 119 123 126
f 119 126 122
f 120 121 125
f 120 125 124
g sights
usemtl metal_dark
f 127 130 129
f 127 129 128
f 131 132 133
f 131 133 134
f 127 128 132
f 127 132 131
f 130 134 133
f 130 133 129
f 127 131 134
f 127 134 130
f 128 129 133
f 128 133 132
usemtl metal
f 135 138 137
f 135 137 136
f 139 140 141
f 139 141 142
f 135 136 140
f 135 140 139
f 138 142 141
f 138 141 137
f 135 139 142
f 135 142 138
f 136 137 141
f 136 141 140
g stock
usemtl wood
f 143 147 148
f 143 148 144
f 147 149 150
f 147 150 148
f 145 146 154
f 145 154 153
f 153 154 156
f 153 156 155
f 155 156 152
f 155 152 151
f 143 145 153
f 143 153 147
f 147 153 155
f 147 155 149
f 149 155 151
f 144 148 154
f 144 154 146
f 148 150 156
f 148 156 154
f 150 152 156
usemtl wood_dark
f 149 151 152
f 149 152 150
f 157 160 159
f 157 159 158
f 161 162 163
f 161 163 164
f 157 158 162
f 157 162 161
f 160 164 163
f 160 163 159
f 157 161 164
f 157 164 160
f 158 159 163
f 158 163 162
g forearm
usemtl skin
f 165 168 167
f 165 167 166
f 169 170 171
f 169 171 172
f 165 166 170
f 165 170 169
f 168 172 171
f 168 171 167
f 165 169 172
f 165 172 168
f 166 167 171
f 166 171 170
g sleeve
usemtl wood_dark
f 173 176 175
f 173 175 174
f 177 178 179
f 177 179 180
f 173 174 178
f 173 178 177
f 176 180 179
f 176 179 175
f 173 177 180
f 173 180 176
f 174 175 179
f 174 179 178
g hand
usemtl skin
f 181 184 183
f 181 183 182
f 185 186 187
f 185 187 188
f 181 182 186
f 181 186 185
f 184 188 187
f 184 187 183
f 181 185 188
f 181 188 184
f 182 183 187
f 182 187 186
f 189 192 191
f 189 191 190
f 193 194 195
f 193 195 196
f 189 190 194
f 189 194 193
f 192 196 195
f 192 195 191
f 189 193 196
f 189 196 192
f 190 191 195
f 190 195 194
f 197 200 199
f 197 199 198
f 201 202 203
f 201 203 204
f 197 198 202
f 197 202 201
f 200 204 203
f 200 203 199
f 197 201 204
f 197 204 200
f 198 199 203
f 198 203 202
f 205 208 207
f 205 207 206
f 209 210 211
f 209 211 212
f 205 206 210
f 205 210 209
f 208 212 211
f 208 211 207
f 205 209 212
f 205 212 208
f 206 207 211
f 206 211 210
f 213 216 215
f 213 215 214
f 217 218 219
f 217 219 220
f 213 214 218
f 213 218 217
f 216 220 219
f 216 219 215
f 213 217 220
f 213 220 216
f 214 215 219
f 214 219 218
f 221 224 223
f 221 223 222
f 225 226 227
f 225 227 228
f 221 222 226
f 221 226 225
f 224 228 227
f 224 227 223
f 221 225 228
f 221 228 224
f 222 223 227
f 222 227 226
usemtl skin_shadow
f 229 232 231
f 229 231 230
f 233 234 235
f 233 235 236
f 229 230 234
f 229 234 233
f 232 236 235
f 232 235 231
f 229 233 236
f 229 236 232
f 230 231 235
f 230 235 234
f 237 240 239
f 237 239 238
f 241 242 243
f 241 243 244
f 237 238 242
f 237 242 241
f 240 244 243
f 240 243 239
f 237 241 244
f 237 244 240
f 238 239 243
f 238 243 242
